<svg width="1440" height="1024" viewBox="0 0 1440 1024" fill="none" xmlns="http://www.w3.org/2000/svg">
<g clip-path="url(#clip0_45_3008)">
<path d="M1440 0H0V1024H1440V0Z" fill="white"/>
<path d="M0 860.16L34.4 832.853C68.8 805.547 137.6 750.933 206.08 729.941C274.72 708.779 342.88 721.408 411.52 713.387C480 705.365 548.8 677.035 617.28 675.328C685.92 673.621 754.08 698.539 822.72 726.528C891.2 754.347 960 785.067 1028.48 776.533C1097.12 768 1165.28 720.213 1233.92 702.805C1302.4 685.568 1371.2 698.539 1405.6 705.195L1440 711.68V1025.71H1405.6C1371.2 1025.71 1302.4 1025.71 1233.92 1025.71C1165.28 1025.71 1097.12 1025.71 1028.48 1025.71C960 1025.71 891.2 1025.71 822.72 1025.71C754.08 1025.71 685.92 1025.71 617.28 1025.71C548.8 1025.71 480 1025.71 411.52 1025.71C342.88 1025.71 274.72 1025.71 206.08 1025.71C137.6 1025.71 68.8 1025.71 34.4 1025.71H0V860.16Z" fill="#B3D1FF"/>
<path d="M0 860.16L34.4 832.853C68.8 805.547 137.6 750.933 206.08 729.941C274.72 708.779 342.88 721.408 411.52 713.387C480 705.365 548.8 677.035 617.28 675.328C685.92 673.621 754.08 698.539 822.72 726.528C891.2 754.347 960 785.067 1028.48 776.533C1097.12 768 1165.28 720.213 1233.92 702.805C1302.4 685.568 1371.2 698.539 1405.6 705.195L1440 711.68V1025.71H1405.6C1371.2 1025.71 1302.4 1025.71 1233.92 1025.71C1165.28 1025.71 1097.12 1025.71 1028.48 1025.71C960 1025.71 891.2 1025.71 822.72 1025.71C754.08 1025.71 685.92 1025.71 617.28 1025.71C548.8 1025.71 480 1025.71 411.52 1025.71C342.88 1025.71 274.72 1025.71 206.08 1025.71C137.6 1025.71 68.8 1025.71 34.4 1025.71H0V860.16Z" fill="#B3D1FF"/>
</g>
<defs>
<clipPath id="clip0_45_3008">
<rect width="1440" height="1024" fill="white"/>
</clipPath>
</defs>
</svg>
