<svg width="28" height="28" viewBox="0 0 28 28" fill="none" xmlns="http://www.w3.org/2000/svg">
<path d="M14.0468 2.91667L11.1185 5.83333H16.9518L14.0468 2.91667ZM4.66683 8.16667V23.3333H23.3335V8.16667H4.66683ZM14.0002 0L19.8335 5.83333H23.3335C23.9523 5.83333 24.5458 6.07917 24.9834 6.51675C25.421 6.95434 25.6668 7.54783 25.6668 8.16667V23.3333C25.6668 23.9522 25.421 24.5457 24.9834 24.9832C24.5458 25.4208 23.9523 25.6667 23.3335 25.6667H4.66683C4.04799 25.6667 3.4545 25.4208 3.01691 24.9832C2.57933 24.5457 2.3335 23.9522 2.3335 23.3333V8.16667C2.3335 7.54783 2.57933 6.95434 3.01691 6.51675C3.4545 6.07917 4.04799 5.83333 4.66683 5.83333H8.16683L14.0002 0ZM8.16683 21V16.3333H14.0002V21H8.16683ZM16.3335 19.8333V11.6667H21.0002V19.8333H16.3335ZM7.00016 14V10.5H12.8335V14H7.00016Z" fill="#E4E4E4"/>
</svg>
