<svg width="16" height="16" viewBox="0 0 16 16" fill="none" xmlns="http://www.w3.org/2000/svg">
<path d="M4.6665 14C4.29984 14 3.98606 13.8696 3.72517 13.6087C3.46384 13.3473 3.33317 13.0333 3.33317 12.6667V4C3.14428 4 2.98584 3.93622 2.85784 3.80867C2.73028 3.68067 2.6665 3.52222 2.6665 3.33333C2.6665 3.14444 2.73028 2.986 2.85784 2.858C2.98584 2.73044 3.14428 2.66667 3.33317 2.66667H5.99984C5.99984 2.47778 6.06384 2.31933 6.19184 2.19133C6.31939 2.06378 6.47762 2 6.6665 2H9.33317C9.52206 2 9.6805 2.06378 9.8085 2.19133C9.93606 2.31933 9.99984 2.47778 9.99984 2.66667H12.6665C12.8554 2.66667 13.0136 2.73044 13.1412 2.858C13.2692 2.986 13.3332 3.14444 13.3332 3.33333C13.3332 3.52222 13.2692 3.68067 13.1412 3.80867C13.0136 3.93622 12.8554 4 12.6665 4V12.6667C12.6665 13.0333 12.5361 13.3473 12.2752 13.6087C12.0138 13.8696 11.6998 14 11.3332 14H4.6665ZM4.6665 4V12.6667H11.3332V4H4.6665ZM5.99984 10.6667C5.99984 10.8556 6.06384 11.0138 6.19184 11.1413C6.31939 11.2693 6.47762 11.3333 6.6665 11.3333C6.85539 11.3333 7.01384 11.2693 7.14184 11.1413C7.26939 11.0138 7.33317 10.8556 7.33317 10.6667V6C7.33317 5.81111 7.26939 5.65267 7.14184 5.52467C7.01384 5.39711 6.85539 5.33333 6.6665 5.33333C6.47762 5.33333 6.31939 5.39711 6.19184 5.52467C6.06384 5.65267 5.99984 5.81111 5.99984 6V10.6667ZM8.6665 10.6667C8.6665 10.8556 8.7305 11.0138 8.8585 11.1413C8.98606 11.2693 9.14428 11.3333 9.33317 11.3333C9.52206 11.3333 9.6805 11.2693 9.8085 11.1413C9.93606 11.0138 9.99984 10.8556 9.99984 10.6667V6C9.99984 5.81111 9.93606 5.65267 9.8085 5.52467C9.6805 5.39711 9.52206 5.33333 9.33317 5.33333C9.14428 5.33333 8.98606 5.39711 8.8585 5.52467C8.7305 5.65267 8.6665 5.81111 8.6665 6V10.6667Z" fill="#E4E4E4"/>
</svg>
