<svg width="16" height="16" viewBox="0 0 16 16" fill="none" xmlns="http://www.w3.org/2000/svg">
<path d="M1.99991 11.3333H9.99991C10.1698 11.3334 10.3333 11.3985 10.4568 11.5152C10.5804 11.6318 10.6547 11.7912 10.6647 11.9608C10.6747 12.1305 10.6195 12.2975 10.5104 12.4278C10.4013 12.5581 10.2466 12.6418 10.0779 12.6619L9.99991 12.6666H1.99991C1.82999 12.6664 1.66656 12.6013 1.543 12.4847C1.41944 12.368 1.34509 12.2086 1.33513 12.039C1.32517 11.8694 1.38036 11.7023 1.48942 11.572C1.59848 11.4417 1.75318 11.358 1.92191 11.3379L1.99991 11.3333ZM1.99991 8.66658H13.9999C14.1698 8.66677 14.3333 8.73184 14.4568 8.84848C14.5804 8.96513 14.6547 9.12455 14.6647 9.29418C14.6747 9.46381 14.6195 9.63084 14.5104 9.76114C14.4013 9.89144 14.2466 9.97518 14.0779 9.99525L13.9999 9.99992H1.99991C1.82999 9.99973 1.66656 9.93467 1.543 9.81802C1.41944 9.70137 1.34509 9.54195 1.33513 9.37232C1.32517 9.20269 1.38036 9.03567 1.48942 8.90536C1.59848 8.77506 1.75318 8.69132 1.92191 8.67125L1.99991 8.66658ZM1.99991 5.99992H13.9999C14.1698 6.00011 14.3333 6.06517 14.4568 6.18182C14.5804 6.29846 14.6547 6.45789 14.6647 6.62751C14.6747 6.79714 14.6195 6.96417 14.5104 7.09447C14.4013 7.22478 14.2466 7.30852 14.0779 7.32859L13.9999 7.33325H1.99991C1.82999 7.33306 1.66656 7.268 1.543 7.15135C1.41944 7.03471 1.34509 6.87528 1.33513 6.70566C1.32517 6.53603 1.38036 6.369 1.48942 6.2387C1.59848 6.10839 1.75318 6.02465 1.92191 6.00459L1.99991 5.99992ZM1.99991 3.33325H13.9999C14.1698 3.33344 14.3333 3.3985 14.4568 3.51515C14.5804 3.6318 14.6547 3.79122 14.6647 3.96085C14.6747 4.13048 14.6195 4.2975 14.5104 4.42781C14.4013 4.55811 14.2466 4.64185 14.0779 4.66192L13.9999 4.66659H1.99991C1.82999 4.6664 1.66656 4.60133 1.543 4.48469C1.41944 4.36804 1.34509 4.20862 1.33513 4.03899C1.32517 3.86936 1.38036 3.70233 1.48942 3.57203C1.59848 3.44173 1.75318 3.35799 1.92191 3.33792L1.99991 3.33325Z" fill="#E4E4E4"/>
</svg>
