<svg width="22" height="22" viewBox="0 0 22 22" fill="none" xmlns="http://www.w3.org/2000/svg">
<path d="M16.2379 4.55039L21.5145 9.82695C21.8238 10.1363 22 10.5617 22 11C22 11.4383 21.8238 11.8637 21.5145 12.173L16.2379 17.4496C15.9629 17.7246 15.5934 17.875 15.2066 17.875C14.4031 17.875 13.75 17.2219 13.75 16.4184V13.75H8.25C7.48945 13.75 6.875 13.1355 6.875 12.375V9.625C6.875 8.86445 7.48945 8.25 8.25 8.25H13.75V5.58164C13.75 4.77812 14.4031 4.125 15.2066 4.125C15.5934 4.125 15.9629 4.27969 16.2379 4.55039ZM6.875 4.125H4.125C3.36445 4.125 2.75 4.73945 2.75 5.5V16.5C2.75 17.2605 3.36445 17.875 4.125 17.875H6.875C7.63555 17.875 8.25 18.4895 8.25 19.25C8.25 20.0105 7.63555 20.625 6.875 20.625H4.125C1.84766 20.625 0 18.7773 0 16.5V5.5C0 3.22266 1.84766 1.375 4.125 1.375H6.875C7.63555 1.375 8.25 1.98945 8.25 2.75C8.25 3.51055 7.63555 4.125 6.875 4.125Z" fill="#121212"/>
</svg>
