<svg width="22" height="22" viewBox="0 0 22 22" fill="none" xmlns="http://www.w3.org/2000/svg">
<g clip-path="url(#clip0_54_242)">
<path d="M11 5.48975C7.96158 5.48975 5.48975 7.96207 5.48975 11.0005C5.48975 14.0389 7.96158 16.5112 11 16.5112C14.0379 16.5112 16.5102 14.0393 16.5102 11.0005C16.5102 7.96158 14.0379 5.48975 11 5.48975Z" fill="#E4E4E4"/>
<path d="M11 3.86997C10.4061 3.86997 9.9248 3.38866 9.9248 2.79531V1.07515C9.9248 0.481311 10.4061 0 11 0C11.5938 0 12.0751 0.481311 12.0751 1.07515V2.79531C12.0751 3.38866 11.5933 3.86997 11 3.86997Z" fill="#E4E4E4"/>
<path d="M11 18.1296C10.4061 18.1296 9.9248 18.6109 9.9248 19.2048V20.9245C9.9248 21.5188 10.4061 22.0001 11 22.0001C11.5938 22.0001 12.0751 21.5188 12.0751 20.9245V19.2048C12.0751 18.6109 11.5933 18.1296 11 18.1296Z" fill="#E4E4E4"/>
<path d="M16.0411 5.95841C15.6217 5.53848 15.6217 4.85792 16.0411 4.43799L17.2576 3.22156C17.677 2.80212 18.3581 2.80212 18.778 3.22156C19.1979 3.64149 19.1979 4.32254 18.778 4.74198L17.5616 5.95841C17.1421 6.37834 16.4616 6.37834 16.0411 5.95841Z" fill="#E4E4E4"/>
<path d="M5.95835 16.0421C5.53842 15.6217 4.85786 15.6217 4.43793 16.0421L3.2215 17.2581C2.80206 17.6775 2.80157 18.359 3.2215 18.7785C3.64143 19.1979 4.32248 19.1979 4.74192 18.7785L5.95835 17.5616C6.37828 17.1421 6.37828 16.4611 5.95835 16.0421Z" fill="#E4E4E4"/>
<path d="M18.1294 11C18.1294 10.4061 18.6107 9.9248 19.2045 9.9248H20.9247C21.5185 9.9248 21.9999 10.4061 21.9999 11C21.9999 11.5938 21.5185 12.0746 20.9247 12.0746H19.2045C18.6107 12.0746 18.1294 11.5938 18.1294 11Z" fill="#E4E4E4"/>
<path d="M3.86997 11C3.86997 10.4061 3.38866 9.9248 2.79482 9.9248H1.07515C0.481311 9.9248 0 10.4061 0 11C0 11.5938 0.481311 12.0746 1.07515 12.0746H2.79531C3.38866 12.0746 3.86997 11.5938 3.86997 11Z" fill="#E4E4E4"/>
<path d="M16.041 16.0421C16.461 15.6227 17.142 15.6227 17.5614 16.0421L18.7779 17.2586C19.1978 17.6775 19.1978 18.359 18.7779 18.7785C18.3579 19.1979 17.6774 19.1979 17.2575 18.7785L16.041 17.562C15.6211 17.1421 15.6211 16.4616 16.041 16.0421Z" fill="#E4E4E4"/>
<path d="M5.95853 5.95853C6.37846 5.5386 6.37846 4.85805 5.95853 4.43812L4.7421 3.22217C4.32217 2.80224 3.64161 2.80224 3.22169 3.22217C2.80176 3.64162 2.80176 4.32266 3.22169 4.7421L4.43812 5.95853C4.85804 6.37895 5.5386 6.37895 5.95853 5.95853Z" fill="#E4E4E4"/>
</g>
<defs>
<clipPath id="clip0_54_242">
<rect width="22" height="22" fill="white"/>
</clipPath>
</defs>
</svg>
