<svg width="30" height="30" viewBox="0 0 30 30" fill="none" xmlns="http://www.w3.org/2000/svg">
<path d="M27.5 12.5C27.5 12.8542 27.38 13.1508 27.14 13.39C26.9008 13.63 26.6042 13.75 26.25 13.75H3.75C3.39583 13.75 3.09917 13.63 2.86 13.39C2.62 13.1508 2.5 12.8542 2.5 12.5V6.25C2.5 5.89583 2.62 5.59875 2.86 5.35875C3.09917 5.11958 3.39583 5 3.75 5H26.25C26.6042 5 26.9008 5.11958 27.14 5.35875C27.38 5.59875 27.5 5.89583 27.5 6.25V12.5ZM13.75 25C13.3958 25 13.0992 24.88 12.86 24.64C12.62 24.4008 12.5 24.1042 12.5 23.75V17.5C12.5 17.1458 12.62 16.8487 12.86 16.6087C13.0992 16.3696 13.3958 16.25 13.75 16.25H26.25C26.6042 16.25 26.9008 16.3696 27.14 16.6087C27.38 16.8487 27.5 17.1458 27.5 17.5V23.75C27.5 24.1042 27.38 24.4008 27.14 24.64C26.9008 24.88 26.6042 25 26.25 25H13.75ZM3.75 25C3.39583 25 3.09917 24.88 2.86 24.64C2.62 24.4008 2.5 24.1042 2.5 23.75V17.5C2.5 17.1458 2.62 16.8487 2.86 16.6087C3.09917 16.3696 3.39583 16.25 3.75 16.25H8.75C9.10417 16.25 9.40125 16.3696 9.64125 16.6087C9.88042 16.8487 10 17.1458 10 17.5V23.75C10 24.1042 9.88042 24.4008 9.64125 24.64C9.40125 24.88 9.10417 25 8.75 25H3.75Z" fill="#E4E4E4"/>
</svg>
